<?xml version="1.0" standalone="no"?>
<!DOCTYPE svg PUBLIC "-//W3C//DTD SVG 20010904//EN"
 "http://www.w3.org/TR/2001/REC-SVG-20010904/DTD/svg10.dtd">
<svg version="1.0" xmlns="http://www.w3.org/2000/svg"
 width="1024.000000pt" height="1024.000000pt" viewBox="0 0 1024.000000 1024.000000"
 preserveAspectRatio="xMidYMid meet">

<g transform="translate(0.000000,1024.000000) scale(0.100000,-0.100000)"
fill="#000000" stroke="none">
<path d="M0 5120 l0 -5120 5120 0 5120 0 0 5120 0 5120 -5120 0 -5120 0 0
-5120z m5379 2865 c181 -33 354 -98 511 -193 355 -215 602 -556 700 -966 33
-136 41 -126 -110 -126 l-130 0 -6 28 c-76 352 -270 639 -559 824 -234 151
-514 218 -786 189 -197 -21 -372 -81 -529 -179 -549 -347 -745 -1036 -459
-1618 161 -330 444 -566 790 -659 411 -110 854 0 1167 290 106 99 201 226 267
360 43 86 105 247 105 271 0 2 -49 4 -108 4 l-108 0 -13 -50 c-18 -68 -91
-217 -142 -287 -98 -136 -243 -259 -390 -330 -622 -303 -1354 69 -1485 755
-18 95 -18 299 0 394 77 403 368 720 762 830 69 19 103 22 264 22 157 0 196
-3 262 -22 232 -64 431 -197 575 -383 121 -157 213 -425 213 -619 l0 -58 228
1 227 2 -4 -80 c-13 -293 -142 -615 -344 -857 -246 -296 -582 -484 -965 -539
-134 -19 -384 -7 -512 24 -141 34 -217 61 -325 115 -551 274 -878 825 -852
1434 16 389 165 726 443 1003 128 127 245 211 409 290 193 94 317 128 550 149
68 7 274 -5 354 -19z m-3360 -3877 c41 -112 107 -295 148 -408 42 -113 106
-290 143 -395 37 -104 71 -198 75 -207 7 -17 -2 -18 -107 -18 l-114 0 -48 138
c-27 75 -53 145 -58 155 -8 16 -28 17 -241 15 l-232 -3 -51 -147 c-28 -81 -53
-150 -56 -153 -3 -3 -55 -4 -115 -3 l-109 3 123 345 c67 190 157 442 199 560
42 118 85 238 96 267 l19 53 128 0 127 0 73 -202z m1271 -413 l0 -615 -106 0
-106 0 4 70 c2 39 1 70 -2 69 -3 0 -19 -19 -35 -42 -47 -64 -128 -101 -231
-105 -55 -3 -100 1 -136 12 -181 52 -280 252 -256 520 12 146 72 258 173 328
70 49 117 62 215 62 101 0 155 -21 224 -84 l46 -43 0 222 0 221 105 0 105 0 0
-615z m313 573 c16 -45 78 -229 222 -658 47 -140 88 -262 92 -270 3 -8 79 206
168 475 l163 490 111 3 c61 1 111 0 111 -4 0 -8 -312 -926 -370 -1090 -22 -61
-40 -116 -40 -123 0 -8 -37 -11 -136 -9 l-137 3 -58 170 c-32 94 -79 229 -103
300 -75 219 -223 647 -240 694 -9 24 -16 47 -16 52 0 5 49 9 109 9 l108 0 16
-42z m2817 -180 l0 -108 125 0 125 0 0 -90 0 -90 -125 0 -125 0 1 -227 c0
-263 5 -289 62 -317 33 -15 46 -17 95 -7 31 6 67 13 80 17 22 6 22 5 22 -80 0
-85 -1 -87 -27 -98 -16 -7 -78 -12 -143 -12 -131 -1 -174 14 -227 79 -52 62
-56 89 -62 379 l-6 269 -60 1 -60 1 -3 88 -3 87 66 0 65 0 0 108 0 107 100 0
100 0 0 -107z m-1524 -98 c188 -31 301 -160 326 -371 6 -52 8 -107 4 -122 l-6
-27 -310 0 c-349 0 -324 7 -290 -83 23 -60 68 -109 122 -131 46 -20 147 -21
191 -2 31 12 90 70 99 96 5 16 158 -56 158 -75 0 -14 -63 -101 -89 -123 -9 -7
-45 -28 -81 -45 -63 -31 -70 -32 -190 -32 -121 0 -127 1 -198 34 -133 62 -211
178 -232 343 -33 269 97 484 323 533 77 17 97 17 173 5z m944 -17 c41 -13 68
-30 105 -68 46 -45 84 -119 67 -129 -4 -2 -41 -12 -83 -21 l-76 -18 -41 41
c-49 49 -122 69 -192 53 -58 -13 -84 -40 -82 -87 3 -71 30 -86 218 -124 121
-24 162 -40 208 -80 47 -42 71 -108 70 -195 -1 -118 -53 -193 -172 -248 -41
-19 -64 -22 -187 -22 -131 0 -144 2 -196 26 -32 15 -75 45 -97 67 -38 38 -82
126 -69 138 3 4 34 14 69 24 35 10 71 21 81 25 11 5 17 2 17 -8 0 -25 76 -95
117 -106 57 -16 150 -13 189 5 38 18 64 58 64 99 0 43 -47 81 -116 95 -245 48
-319 86 -365 185 -21 46 -25 138 -7 196 16 54 68 112 124 138 90 43 240 48
354 14z m1465 5 c102 -22 215 -111 264 -206 69 -134 68 -350 0 -485 -36 -69
-126 -150 -205 -182 -96 -40 -242 -47 -341 -17 -190 58 -303 223 -303 439 1
148 36 246 121 332 119 121 274 161 464 119z m953 -80 l3 -98 -44 0 c-105 0
-203 -67 -241 -165 -17 -43 -20 -83 -24 -302 l-4 -253 -99 0 -99 0 0 450 0
450 100 0 100 0 0 -97 1 -98 23 48 c52 106 146 169 246 164 l35 -2 3 -97z
m577 77 c60 -17 128 -72 155 -126 34 -66 30 -73 -57 -93 l-78 -18 -42 40 c-94
90 -273 71 -273 -29 0 -68 35 -91 178 -119 135 -27 161 -35 215 -70 121 -77
132 -299 21 -401 -74 -68 -168 -94 -324 -87 -123 5 -174 24 -243 87 -41 38
-96 136 -83 148 2 3 40 15 83 28 70 21 79 22 88 8 55 -86 118 -117 224 -111
82 4 120 26 137 79 23 69 -23 118 -125 134 -71 11 -191 45 -230 65 -131 67
-171 254 -82 377 71 98 263 137 436 88z"/>
<path d="M1810 4038 c0 -9 -125 -372 -157 -454 -4 -12 24 -14 167 -14 160 0
172 1 167 18 -3 9 -41 117 -84 239 -69 197 -93 252 -93 211z"/>
<path d="M2771 3806 c-118 -42 -179 -215 -136 -381 18 -69 51 -115 106 -152
31 -21 51 -25 102 -25 148 0 237 105 237 281 0 95 -19 155 -67 211 -62 72
-155 98 -242 66z"/>
<path d="M4714 3801 c-23 -10 -51 -33 -64 -51 -20 -27 -50 -107 -50 -132 0 -4
95 -8 210 -8 235 0 221 -5 199 75 -25 91 -89 135 -194 135 -37 0 -76 -8 -101
-19z"/>
<path d="M7085 3805 c-104 -40 -173 -166 -162 -295 15 -174 126 -282 274 -267
145 15 235 147 220 322 -9 104 -61 191 -140 232 -44 22 -143 26 -192 8z"/>
</g>
</svg>
